# xmcd CD database file
# Copyright (C) 1995-1998 Ti Kan
#
# Track frame offsets:
#	150
#	15095
#	30910
#
# Disc length: 647 seconds
#
# Revision: 1
# Processed by: cddbd v1.4b41PL1 Copyright (c) Steve Scherf et al.
# Submitted via: CDex 1.30
#
DISCID=0c028503
DTITLE=Mr. Mojo Blues Band - Mr. Mojo Blues Band
DYEAR=1996
DGENRE=Blues
TTITLE0=Blues do Chapéu
TTITLE1=Ten years passed away
TTITLE2=Soothed Soul
EXTD=\nYEAR: 1996  ID3G:   0
EXTT0=
EXTT1=
EXTT2=
PLAYORDER=
